<svg viewBox="0 0 120 145" xmlns="http://www.w3.org/2000/svg">
  <defs>
    <radialGradient id="b1" cx="38%" cy="32%" r="65%">
      <stop offset="0%" stop-color="#F2C040"/>
      <stop offset="55%" stop-color="#D08A10"/>
      <stop offset="100%" stop-color="#A06008"/>
    </radialGradient>
    <radialGradient id="ear1" cx="40%" cy="38%" r="60%">
      <stop offset="0%" stop-color="#C07010"/>
      <stop offset="100%" stop-color="#7A4800"/>
    </radialGradient>
    <radialGradient id="coin1" cx="38%" cy="35%" r="62%">
      <stop offset="0%" stop-color="#FFDF60"/>
      <stop offset="100%" stop-color="#C89010"/>
    </radialGradient>
  </defs>
  <g>
    <ellipse cx="60" cy="135" rx="26" ry="5" fill="rgba(0,0,0,0.07)"/>
    <circle cx="26" cy="36" r="13" fill="url(#ear1)"/>
    <circle cx="94" cy="36" r="13" fill="url(#ear1)"/>
    <circle cx="26" cy="36" r="7" fill="#5A3400" opacity=".5"/>
    <circle cx="94" cy="36" r="7" fill="#5A3400" opacity=".5"/>
    <circle cx="60" cy="72" r="47" fill="#8A5800" opacity=".2"/>
    <circle cx="60" cy="70" r="47" fill="url(#b1)"/>
    <ellipse cx="40" cy="65" rx="18" ry="19" fill="white"/>
    <ellipse cx="80" cy="65" rx="18" ry="19" fill="white"/>
    <circle cx="40" cy="67" r="12" fill="#1A1A2E"/>
    <circle cx="80" cy="67" r="12" fill="#1A1A2E"/>
    <circle cx="45" cy="61" r="4.5" fill="white" opacity=".9"/>
    <circle cx="85" cy="61" r="4.5" fill="white" opacity=".9"/>
    <path d="M38 90 Q60 106 82 90" fill="none" stroke="#7A4800" stroke-width="3.5" stroke-linecap="round"/>
    <rect x="29" y="113" width="22" height="12" rx="6" fill="#C4A878"/>
    <rect x="69" y="113" width="22" height="12" rx="6" fill="#C4A878"/>
    <circle cx="14" cy="88" r="13" fill="url(#coin1)" stroke="#A07010" stroke-width="1.8"/>
    <text x="14" y="93" text-anchor="middle" font-family="sans-serif" font-weight="600" font-size="13" fill="#7A5000">$</text>
  </g>
</svg>
